<svg xmlns="http://www.w3.org/2000/svg" width="135" height="24" fill="none" viewBox="0 0 135 24">
  <path fill="#000" d="M41.02 20h-4.348l-2.613-4.324a14.631 14.631 0 0 0-.563-.88 4.356 4.356 0 0 0-.55-.655 1.906 1.906 0 0 0-.575-.422 1.375 1.375 0 0 0-.644-.153h-1.02V20h-3.785V3.195h6c4.078 0 6.117 1.524 6.117 4.57 0 .587-.09 1.13-.27 1.63a4.53 4.53 0 0 1-.761 1.335 4.787 4.787 0 0 1-1.196 1.032c-.46.289-.976.515-1.546.68v.046c.25.078.492.207.726.387.235.172.461.375.68.61.219.234.426.488.621.761.203.266.387.527.55.785L41.02 20ZM30.706 6.031v4.676h1.64c.813 0 1.465-.234 1.958-.703.5-.477.75-1.066.75-1.77 0-1.468-.88-2.203-2.637-2.203h-1.711Zm34.892 13.535c-.836.485-2.043.727-3.621.727-1.844 0-3.336-.559-4.477-1.676-1.14-1.117-1.71-2.558-1.71-4.324 0-2.04.608-3.645 1.827-4.816 1.227-1.18 2.864-1.77 4.91-1.77 1.414 0 2.438.188 3.07.563v3.14a4.221 4.221 0 0 0-2.59-.867c-1.062 0-1.905.313-2.53.938-.618.617-.926 1.472-.926 2.566 0 1.062.297 1.898.89 2.508.594.601 1.41.902 2.45.902.922 0 1.824-.289 2.707-.867v2.976ZM80.059 20h-4.442l-3.832-5.953h-.047V20h-3.703V2.234h3.703v11.309h.047L75.36 8h4.395l-4.3 5.637L80.058 20Zm11.835-4.945h-7.828c.125 1.742 1.223 2.613 3.293 2.613 1.32 0 2.48-.313 3.48-.938v2.672c-1.108.594-2.55.891-4.323.891-1.938 0-3.442-.535-4.512-1.605-1.07-1.079-1.606-2.579-1.606-4.5 0-1.993.579-3.57 1.735-4.735 1.156-1.164 2.578-1.746 4.265-1.746 1.75 0 3.102.52 4.055 1.559.961 1.039 1.441 2.449 1.441 4.23v1.559Zm-3.433-2.274c0-1.719-.695-2.578-2.086-2.578-.594 0-1.11.246-1.547.738-.43.493-.691 1.106-.785 1.84h4.418ZM105.84 20h-3.703v-1.652h-.047c-.844 1.297-2.082 1.945-3.715 1.945-1.5 0-2.707-.527-3.621-1.582-.914-1.063-1.371-2.543-1.371-4.441 0-1.985.504-3.575 1.511-4.77 1.008-1.195 2.329-1.793 3.962-1.793 1.546 0 2.624.555 3.234 1.664h.047V2.234h3.703V20Zm-3.633-5.836v-.902c0-.782-.227-1.43-.68-1.946-.453-.515-1.043-.773-1.77-.773-.82 0-1.46.324-1.921.973-.461.64-.692 1.523-.692 2.648 0 1.055.223 1.867.668 2.438.446.57 1.063.855 1.852.855.75 0 1.359-.3 1.828-.902.477-.602.715-1.399.715-2.39Zm17.531.891h-7.828c.125 1.742 1.223 2.613 3.293 2.613 1.32 0 2.481-.313 3.481-.938v2.672c-1.11.594-2.551.891-4.325.891-1.937 0-3.441-.535-4.511-1.605-1.071-1.079-1.606-2.579-1.606-4.5 0-1.993.578-3.57 1.735-4.735 1.156-1.164 2.578-1.746 4.265-1.746 1.75 0 3.102.52 4.055 1.559.961 1.039 1.441 2.449 1.441 4.23v1.559Zm-3.433-2.274c0-1.719-.696-2.578-2.086-2.578-.594 0-1.11.246-1.547.738-.43.493-.692 1.106-.785 1.84h4.418ZM133.531 8l-3.961 5.813L133.508 20h-4.266l-1.734-3.234a11.952 11.952 0 0 1-.504-1.09h-.047c-.117.328-.277.68-.48 1.054L124.73 20h-4.253l4.054-5.977L120.723 8h4.289l1.711 3.363c.226.446.386.82.48 1.125h.047c.125-.367.293-.75.504-1.148L129.5 8h4.031Z"/>
  <path fill="#5900FF" d="M4.258 18.914s.133-1.775 1.702-3.281v-1.331c-.918.363-1.955.9-2.712 1.721C.708 18.779 1.054 21.106 1 22.047c-.013.161.12.269.28.282.97.04 3.721-.094 5.822-2.353.771-.82 1.303-1.775 1.662-2.703H7.58c-1.488 1.506-3.323 1.64-3.323 1.64Z"/>
  <path fill="#5900FF" d="M20.81 2.483c-.04-.27-.04-.27-.307-.31-1.648-.268-7.272-.968-12.084 4.935l-2.725.014a.646.646 0 0 0-.466.363L3.42 11.707c-.093.201.027.43.253.43h2.513c-.08.188-.173 1.156-.173 1.412 0 .255-.226.013 1.648 1.95 1.915 1.936 2.287 1.734 2.633 1.68.132-.013.664-.094.664-.094l-.013 2.501c0 .215.213.35.425.256l4.188-1.816a.677.677 0 0 0 .359-.47s-.027-2.595 0-2.609c5.543-4.45 5.198-10.649 4.892-12.464Zm-7.406 9.654c-1.382 0-2.499-1.13-2.499-2.528a2.508 2.508 0 0 1 2.5-2.514c1.382 0 2.498 1.13 2.498 2.528a2.5 2.5 0 0 1-2.499 2.514Z"/>
  <path fill="#5900FF" d="M13.404 8.023c-.864 0-1.582.712-1.582 1.6 0 .874.705 1.6 1.582 1.6.864 0 1.582-.713 1.582-1.6 0-.888-.704-1.6-1.582-1.6Z"/>
  <path fill="#000" d="M47.262 8.452a5.808 5.808 0 0 1 5.766 5.084H50.08a2.913 2.913 0 0 0-2.818-2.179c-1.35 0-2.491.922-2.81 2.179h-2.956a5.808 5.808 0 0 1 5.766-5.084Z" opacity=".3"/>
  <path fill="#000" d="M47.262 7A7.265 7.265 0 0 0 40 14.262a7.265 7.265 0 0 0 7.262 7.262 7.265 7.265 0 0 0 7.262-7.262A7.265 7.265 0 0 0 47.262 7Zm0 1.452a5.808 5.808 0 0 1 5.766 5.084H50.08a2.913 2.913 0 0 0-2.818-2.179c-1.35 0-2.49.922-2.81 2.179h-2.956a5.808 5.808 0 0 1 5.766-5.084Zm1.452 5.81c0 .799-.653 1.452-1.452 1.452a1.457 1.457 0 0 1-1.453-1.452c0-.799.654-1.453 1.453-1.453s1.452.654 1.452 1.453Zm-1.452 5.81a5.808 5.808 0 0 1-5.766-5.084h2.948a2.899 2.899 0 0 0 2.81 2.179 2.9 2.9 0 0 0 2.811-2.179h2.948a5.783 5.783 0 0 1-5.751 5.083Z"/>
</svg>
